<svg id="visual" viewBox="0 0 1920 1080" width="1920" height="1080" xmlns="http://www.w3.org/2000/svg" xmlns:xlink="http://www.w3.org/1999/xlink" version="1.1"><g stroke-width="1" stroke-linejoin="bevel"><path d="M936 391L476 400L919 700Z" fill="#292f36" stroke="#292f36"></path><path d="M476 400L514 763L919 700Z" fill="#00101c" stroke="#00101c"></path><path d="M936 391L466 0L476 400Z" fill="#131d26" stroke="#131d26"></path><path d="M514 763L944 1080L919 700Z" fill="#06141e" stroke="#06141e"></path><path d="M919 700L1434 687L936 391Z" fill="#292f36" stroke="#292f36"></path><path d="M1470 386L991 0L936 391Z" fill="#1b232c" stroke="#1b232c"></path><path d="M936 391L991 0L466 0Z" fill="#292f36" stroke="#292f36"></path><path d="M0 756L433 1080L514 763Z" fill="#00101c" stroke="#00101c"></path><path d="M514 763L433 1080L944 1080Z" fill="#0b1721" stroke="#0b1721"></path><path d="M0 756L514 763L476 400Z" fill="#0f1a24" stroke="#0f1a24"></path><path d="M466 0L0 348L476 400Z" fill="#292f36" stroke="#292f36"></path><path d="M944 1080L1434 687L919 700Z" fill="#131d26" stroke="#131d26"></path><path d="M0 348L0 756L476 400Z" fill="#06141e" stroke="#06141e"></path><path d="M1434 687L1470 386L936 391Z" fill="#00101c" stroke="#00101c"></path><path d="M466 0L0 0L0 348Z" fill="#222931" stroke="#222931"></path><path d="M0 756L0 1080L433 1080Z" fill="#00101c" stroke="#00101c"></path><path d="M1470 386L1443 0L991 0Z" fill="#1b232c" stroke="#1b232c"></path><path d="M944 1080L1487 1080L1434 687Z" fill="#292f36" stroke="#292f36"></path><path d="M1920 734L1920 343L1470 386Z" fill="#1e262e" stroke="#1e262e"></path><path d="M1920 734L1470 386L1434 687Z" fill="#131d26" stroke="#131d26"></path><path d="M1470 386L1920 343L1443 0Z" fill="#292f36" stroke="#292f36"></path><path d="M1487 1080L1920 734L1434 687Z" fill="#222931" stroke="#222931"></path><path d="M1920 343L1920 0L1443 0Z" fill="#0f1a24" stroke="#0f1a24"></path><path d="M1487 1080L1920 1080L1920 734Z" fill="#00101c" stroke="#00101c"></path></g></svg>